HIERARCHY
ROOT Hips
{
 OFFSET 0.000000 0.000000 0.000000
 CHANNELS 6 Xposition Yposition Zposition Zrotation Yrotation Xrotation
 JOINT LeftUpLeg
 {
  OFFSET -10.548519 0.103460 -1.857825
  CHANNELS 3 Zrotation Yrotation Xrotation
  JOINT LeftLeg
  {
   OFFSET 0.000016 -43.500008 0.000019
   CHANNELS 3 Zrotation Yrotation Xrotation
   JOINT LeftFoot
   {
    OFFSET 0.000011 -42.372192 -0.000004
    CHANNELS 3 Zrotation Yrotation Xrotation
    JOINT LeftToe
    {
     OFFSET -0.000016 0.000001 -17.300001
     CHANNELS 3 Zrotation Yrotation Xrotation
     End Site
     {
      OFFSET 0.000000 0.000000 0.000000
     }
    }
   }
  }
 }
 JOINT RightUpLeg
 {
  OFFSET 10.548484 0.103460 -1.857824
  CHANNELS 3 Zrotation Yrotation Xrotation
  JOINT RightLeg
  {
   OFFSET 0.000031 -43.500046 0.000008
   CHANNELS 3 Zrotation Yrotation Xrotation
   JOINT RightFoot
   {
    OFFSET 0.000010 -42.372261 0.000000
    CHANNELS 3 Zrotation Yrotation Xrotation
    JOINT RightToe
    {
     OFFSET 0.000010 -0.000007 -17.299986
     CHANNELS 3 Zrotation Yrotation Xrotation
     End Site
     {
      OFFSET 0.000000 0.000000 0.000000
     }
    }
   }
  }
 }
 JOINT Spine
 {
  OFFSET 0.000000 6.901969 2.603749
  CHANNELS 3 Zrotation Yrotation Xrotation
  JOINT Spine1
  {
   OFFSET 0.000003 12.588099 -0.000014
   CHANNELS 3 Zrotation Yrotation Xrotation
   JOINT Spine2
   {
    OFFSET -0.000011 12.343207 -0.000019
    CHANNELS 3 Zrotation Yrotation Xrotation
    JOINT Neck
    {
     OFFSET 0.000002 25.832890 0.000025
     CHANNELS 3 Zrotation Yrotation Xrotation
     JOINT Head
     {
      OFFSET 0.000004 11.766609 -0.000013
      CHANNELS 3 Zrotation Yrotation Xrotation
      End Site
      {
       OFFSET 0.000000 0.000000 0.000000
      }
     }
    }
    JOINT LeftShoulder
    {
     OFFSET -6.000105 19.745899 1.480392
     CHANNELS 3 Zrotation Yrotation Xrotation
     JOINT LeftArm
     {
      OFFSET -11.284097 -0.000023 -0.000017
      CHANNELS 3 Zrotation Yrotation Xrotation
      JOINT LeftForeArm
      {
       OFFSET -33.000065 0.000044 -0.000020
       CHANNELS 3 Zrotation Yrotation Xrotation
       JOINT LeftHand
       {
        OFFSET -25.200005 0.000007 0.000023
        CHANNELS 3 Zrotation Yrotation Xrotation
        End Site
        {
         OFFSET 0.000000 0.000000 0.000000
        }
       }
      }
     }
    }
    JOINT RightShoulder
    {
     OFFSET 6.000090 19.746096 1.480391
     CHANNELS 3 Zrotation Yrotation Xrotation
     JOINT RightArm
     {
      OFFSET 11.284126 0.000012 -0.000026
      CHANNELS 3 Zrotation Yrotation Xrotation
      JOINT RightForeArm
      {
       OFFSET 33.000092 -0.000014 0.000010
       CHANNELS 3 Zrotation Yrotation Xrotation
       JOINT RightHand
       {
        OFFSET 25.199760 -0.000418 0.000151
        CHANNELS 3 Zrotation Yrotation Xrotation
        End Site
        {
         OFFSET 0.000000 0.000000 0.000000
        }
       }
      }
     }
    }
   }
  }
 }
}
MOTION
Frames: 11
Frame Time: 0.016667
590.037700 83.712310 -1038.705089 12.662995 -48.607216 -6.043058 -2.406485 17.500127 28.497718 -3.196360 -4.027896 -91.369298 -1.321631 2.290045 -14.677043 0.001125 0.002877 21.454553 -13.274330 -2.192250 21.508529 7.548279 3.256861 -39.594363 -5.571285 -0.306702 -3.375987 -0.001120 -0.002898 21.454557 -1.978100 -1.000574 -9.106481 -4.186359 -1.743222 -8.332256 -4.266774 -1.752467 -7.775113 -0.412295 13.844943 -5.666752 15.453232 16.389485 5.438768 10.273205 -4.687686 0.593382 44.452130 -42.607731 -18.790044 -34.058441 -73.062110 30.340974 -12.600006 1.022589 -56.269198 -14.036077 0.784171 1.164129 -45.948606 15.695950 -28.148464 35.114534 69.606354 31.394774 13.636651 -2.765719 -28.536174
593.168157 84.654311 -1041.899331 12.521694 -48.426852 -6.122619 -0.909284 16.731363 35.664090 -3.626879 -3.258413 -84.909021 -0.773767 2.209943 -14.314463 0.001129 0.002871 21.454551 -13.896409 -2.809677 17.084810 8.556293 3.493198 -37.641508 -5.949632 -0.595441 -1.320128 -0.001120 -0.002900 21.454564 -2.109553 -0.570697 -8.995311 -4.229617 -0.980963 -7.972757 -4.185497 -0.812705 -7.561560 0.254336 14.522204 -5.205094 15.430197 16.269037 5.737857 11.385027 -3.640973 0.681410 47.442756 -38.573366 -24.293508 -29.891500 -67.851489 25.681984 -14.493777 0.758847 -57.310109 -13.529799 1.151842 1.125113 -47.056252 13.475709 -28.955460 37.668250 72.555527 34.169605 13.948613 -2.579027 -29.285031
596.381799 84.487596 -1045.298130 13.207975 -47.843899 -7.352380 0.621428 15.850458 39.774914 -5.378032 -1.422430 -74.554069 0.922513 3.034124 -13.753503 0.001130 0.002869 21.454552 -14.297401 -3.300324 13.605944 9.446644 3.588054 -35.811311 -6.711140 -0.602637 0.305885 -0.001120 -0.002896 21.454563 -2.157120 -0.193904 -8.923367 -4.455547 -0.109333 -8.009785 -4.404165 -0.112419 -7.606332 1.145289 15.213531 -4.985556 15.710760 17.678795 5.699776 12.494987 -2.382004 0.890843 49.634550 -34.842370 -27.675780 -26.363885 -62.450914 21.426521 -16.035203 -0.025192 -57.297576 -13.016580 1.752765 1.011017 -46.891526 11.475208 -28.259513 40.453055 76.099455 37.352006 13.198065 -0.821927 -31.191479
599.686684 84.594097 -1048.810368 13.066397 -47.401540 -7.321177 3.247827 17.143456 41.568892 -7.209181 0.800406 -60.112928 0.423064 4.324567 -13.717372 0.001128 0.002872 21.454548 -13.792755 -3.189046 8.969673 10.156207 2.920834 -34.170622 -7.123028 -0.741990 1.917684 -0.001118 -0.002898 21.454557 -2.164613 0.124053 -8.959463 -4.264818 0.494954 -7.789708 -4.277323 0.576225 -7.524136 1.408891 15.818790 -4.474182 16.282588 18.451551 6.162078 13.661866 -1.727983 1.022597 51.198480 -29.714035 -29.914155 -21.725730 -55.360901 16.274341 -16.768624 0.220603 -54.142185 -12.781071 1.760373 0.999217 -46.058672 9.567281 -27.940522 42.800230 79.458195 39.977381 11.118686 -0.721265 -32.451662
603.210270 85.564576 -1052.441549 11.842036 -47.129394 -6.610338 7.178928 20.091595 41.026295 -7.318669 3.348735 -44.005419 1.391494 5.551162 -14.272465 0.001128 0.002871 21.454547 -13.427444 -2.678532 3.881111 10.363745 1.819338 -32.344030 -7.655857 -1.250203 2.502836 -0.001120 -0.002896 21.454554 -2.154182 0.435781 -8.737159 -4.360983 1.093218 -7.855398 -4.080624 0.810551 -7.394132 1.795468 16.479000 -3.897198 17.066436 19.663964 6.518914 14.604537 -1.063283 1.100505 50.817947 -25.504486 -28.985707 -18.008451 -47.853537 11.743812 -18.152526 1.659324 -48.799872 -12.721214 1.686598 0.973663 -44.694986 8.155248 -28.497557 47.555041 81.717455 44.800077 9.340631 -0.199770 -34.043030
606.745225 84.198307 -1056.034100 11.896789 -46.519443 -5.482070 11.849519 24.638810 38.502204 -5.365398 3.177006 -28.565868 2.666351 3.861282 -17.001274 0.001129 0.002875 21.454553 -13.307463 -3.317417 -0.887658 10.584138 1.033309 -31.187649 -7.530340 -1.498675 2.867205 -0.001120 -0.002890 21.454560 -2.094138 0.564619 -8.849935 -4.197473 1.152022 -7.524857 -4.214807 1.194901 -7.072687 0.842917 16.737965 -3.973318 18.014408 19.738161 6.417622 15.484108 -0.444576 1.233350 51.255080 -21.368730 -29.062095 -14.842267 -42.631458 8.737443 -18.563188 4.686574 -42.804896 -11.828279 1.848190 0.958132 -44.243999 7.854297 -29.072170 57.073554 83.036474 54.210585 7.343808 -0.992158 -34.458112
610.169732 84.651111 -1059.584539 11.963060 -45.065970 -4.773471 14.740637 26.870992 36.093795 -4.054696 1.653217 -20.410278 1.463037 2.469993 -17.787345 0.001126 0.002876 21.454551 -12.567452 -7.013467 -5.301112 10.156291 1.208995 -30.361924 -7.887147 -1.133028 3.039996 -0.001119 -0.002894 21.454561 -2.052102 0.485392 -8.799040 -4.629764 0.989587 -7.625920 -4.330280 1.081894 -7.293661 0.401427 16.473161 -4.761040 19.618626 19.567439 6.413619 16.255175 0.027080 1.375932 51.963741 -16.720914 -31.020308 -11.298289 -34.820079 5.626131 -18.773915 5.630900 -39.821066 -11.766817 2.327937 0.904054 -42.496827 6.950678 -29.987776 65.751826 84.019217 62.849974 7.047984 -1.337052 -34.715520
613.197309 83.624861 -1063.077337 10.635054 -43.162824 -2.980720 16.551467 26.957385 32.373778 -4.499413 -1.302616 -17.944253 -8.471761 -0.082134 -19.815272 0.001131 0.002871 21.454553 -10.429995 -10.831572 -7.292506 8.447201 2.172730 -33.180282 -8.254923 -0.561570 1.537872 -0.001122 -0.002905 21.454562 -2.116061 0.282677 -8.773647 -4.318785 0.841501 -7.639514 -4.289744 0.848568 -7.084330 -0.662948 16.140506 -4.836426 20.371413 19.541021 6.029803 15.937390 -0.055216 1.287075 52.570070 -12.725772 -32.237625 -9.430038 -29.669025 3.707715 -18.624572 5.724019 -38.723700 -11.501158 1.943513 1.016964 -40.772176 6.267714 -30.611576 56.427658 84.013686 53.692089 6.342539 -1.666307 -35.287019
615.720679 84.059601 -1066.470546 8.381159 -41.498119 0.070120 15.618585 18.394095 28.467583 -5.625159 0.715629 -20.650980 -16.668929 1.122712 -21.927894 0.001133 0.002882 21.454553 -4.930192 -14.589893 -6.014902 5.734229 4.216188 -41.742601 -8.185961 0.459747 -3.326465 -0.001120 -0.002893 21.454556 -1.820661 0.224077 -8.894265 -3.578241 0.877842 -7.575665 -3.485800 0.745275 -7.259032 -1.425432 16.240348 -5.233237 21.438772 20.301161 5.852838 15.937273 0.085790 1.342320 53.128379 -9.851792 -34.534399 -7.350581 -24.065042 2.216182 -20.049605 5.954966 -37.121629 -11.852371 1.715494 1.068247 -40.110900 5.291677 -30.688835 59.787446 84.360955 56.971683 4.957842 -2.936072 -34.981682
617.412799 82.753003 -1069.735141 4.087309 -40.348297 3.457564 15.500496 6.830002 26.202662 -7.149251 6.218406 -24.931951 -19.108620 4.872824 -22.801848 0.001131 0.002878 21.454555 1.842353 -16.840323 -2.691809 1.874774 6.443955 -55.886455 -10.888028 1.972051 -12.214086 -0.001122 -0.002902 21.454560 -1.232647 0.299448 -8.962279 -2.220232 0.879251 -7.829882 -2.293892 0.801298 -7.375396 -1.321447 16.322211 -5.630516 21.212970 20.291628 5.894156 16.349226 -0.433102 1.227169 52.948365 -7.151239 -37.292097 -5.785395 -18.862391 1.186249 -17.739313 7.066877 -38.416329 -12.555027 1.530666 1.066130 -40.269290 4.147270 -30.714673 49.159424 83.086658 46.282622 5.191665 -2.904237 -35.373029
618.707952 83.020457 -1073.242412 -0.176399 -39.583796 6.270739 16.649887 3.160302 25.127749 -7.104225 8.084817 -29.141325 -18.014606 6.667807 -19.945298 0.001131 0.002872 21.454551 7.968819 -16.431282 2.860408 -3.408337 7.047375 -70.534710 -14.059700 3.532051 -22.396841 -0.001119 -0.002896 21.454558 -0.629377 0.448972 -8.771713 -1.129167 0.985138 -7.713962 -1.055827 1.194778 -7.229784 -0.386206 16.135732 -6.282988 20.504034 20.233701 5.544334 16.248350 -0.193036 1.319768 52.903858 -5.094066 -39.603931 -4.682110 -13.377772 0.579232 -14.731719 8.852780 -42.099054 -12.109407 1.605231 1.095896 -41.670754 1.887228 -29.803065 39.795556 79.574499 36.721837 4.956418 -3.795658 -35.839541
